<svg class="active" id="e9thq6oey82p1" xmlns="http://www.w3.org/2000/svg" xmlns:xlink="http://www.w3.org/1999/xlink" viewBox="0 0 147 145" shape-rendering="geometricPrecision" text-rendering="geometricPrecision" width="147" height="145"><g id="e9thq6oey82p2"><g id="e9thq6oey82p3" transform="matrix(1 0 0 1 -66 -112)"><g id="e9thq6oey82p4" transform="matrix(1 0 0 1 66 20)"><g id="e9thq6oey82p5" transform="matrix(1 0 0 1 0.25000000000000 92.81000000000000)"><g id="e9thq6oey82p6"><path id="e9thq6oey82p7" d="M52.383271,64.754252C53.883271,64.754252,54.993271,64.004252,55.713271,62.504252L55.713271,62.504252L55.713271,60.074252C53.313271,59.234252,52.113271,55.454252,52.113271,48.734252C52.113271,36.794252,52.863271,24.704252,54.363271,12.464252C54.723271,9.944252,55.083271,8.384252,55.443271,7.784252C55.503271,7.724252,55.983271,7.184252,56.883271,6.164252C57.423271,5.624252,57.693271,4.934252,57.693271,4.094252C57.693271,2.954252,56.463271,1.964252,54.003271,1.124252C51.963271,0.464252,50.223271,0.134252,48.783271,0.134252C44.763271,0.134252,42.123271,1.844252,40.863271,5.264252C39.603271,9.884252,38.733271,13.424252,38.253271,15.884252C37.173271,21.104252,36.093271,26.324252,35.013271,31.544252C33.573271,38.084252,32.103271,43.154252,30.603271,46.754252C29.823271,48.614252,29.193271,49.544252,28.713271,49.544252C26.553271,49.544252,24.003271,43.934252,21.063271,32.714252C18.843271,24.014252,17.433271,17.024252,16.833271,11.744252C16.413271,7.964252,16.113271,5.144252,15.933271,3.284252C14.013271,1.544252,12.363271,0.674252,10.983271,0.674252C4.983271,0.674252,3.759628,0.134252,1.983271,0.134252C3.759628,0.134252,1.983271,0.134252,1.983271,0.134252C3.183271,7.784252,2.862331,8.003543,1.983271,7.784252C1.983271,11.984252,1.993308,19.438504,2.703271,27.764252C2.223271,36.224252,3.759628,0.134252,1.983271,0.134252C3.759628,0.134252,1.983271,0.134252,1.983271,0.134252C3.089336,63.024127,3.423271,62.054252,3.423271,60.074252C3.423271,59.174252,12.468271,57.479252,11.838271,55.889252C11.208271,54.299252,10.863271,53.144252,10.803271,52.424252C10.323271,48.464252,10.083271,42.074252,10.083271,33.254252C10.083271,28.994252,10.263271,24.824252,10.623271,20.744252C14.283271,34.484252,17.373271,44.264252,19.893271,50.084252C22.593271,56.504252,25.713271,59.714252,29.253271,59.714252C32.373271,59.714252,35.613271,54.254252,38.973271,43.334252C40.833271,36.254252,42.663271,29.204252,44.463271,22.184252C43.983271,28.244252,43.743271,35.804252,43.743271,44.864252C43.743271,49.004252,44.313271,52.964252,45.453271,56.744252C47.013271,62.084252,49.323271,64.754252,52.383271,64.754252Z" transform="matrix(1.01537713150562 0 0 1 0.41957200191091 -0.48425200000000)" fill="rgba(164,47,47,0)" fill-rule="evenodd" stroke="rgb(0,0,0)" stroke-width="1" stroke-linecap="round" stroke-linejoin="round" stroke-dashoffset="496.120000" stroke-dasharray="496.120000" class="svg-elem-1"></path></g><path id="e9thq6oey82p8" d="M78.260000,20.970000C79.580000,20.970000,81.335000,20.355000,83.525000,19.125000C85.715000,17.895000,86.810000,16.680000,86.810000,15.480000C86.810000,14.040000,85.940000,13.320000,84.200000,13.320000C83.600000,13.320000,82.745000,13.725000,81.635000,14.535000C80.525000,15.345000,79.640000,15.750000,78.980000,15.750000C78.500000,15.750000,77.585000,15.345000,76.235000,14.535000C74.885000,13.725000,73.550000,13.320000,72.230000,13.320000C70.910000,13.320000,69.230000,13.860000,67.190000,14.940000C64.910000,16.140000,63.770000,17.310000,63.770000,18.450000C63.770000,19.890000,64.640000,20.610000,66.380000,20.610000C66.860000,20.610000,67.610000,20.280000,68.630000,19.620000C69.650000,18.960000,70.520000,18.630000,71.240000,18.630000C71.780000,18.630000,72.800000,19.020000,74.300000,19.800000C75.800000,20.580000,77.120000,20.970000,78.260000,20.970000ZM86.810000,66.060000C89.030000,66.060000,90.290000,65.130000,90.590000,63.270000C91.070000,60.090000,91.310000,54.630000,91.310000,46.890000C91.310000,31.590000,85.670000,23.940000,74.390000,23.940000C71.030000,23.940000,68.150000,25.020000,65.750000,27.180000C63.350000,29.340000,62.150000,32.100000,62.150000,35.460000C62.150000,36.480000,62.705000,37.455000,63.815000,38.385000C64.925000,39.315000,65.990000,39.780000,67.010000,39.780000C68.690000,39.780000,69.530000,39.030000,69.530000,37.530000C69.530000,33.090000,71.900000,30.870000,76.640000,30.870000C80.420000,30.870000,82.280000,34.020000,82.220000,40.320000L82.220000,40.320000L82.220000,42.480000L74.570000,42.480000C71.510000,42.480000,68.240000,43.590000,64.760000,45.810000C60.920000,48.270000,59,50.910000,59,53.730000C59,56.610000,60.680000,58.980000,64.040000,60.840000C66.860000,62.400000,69.830000,63.180000,72.950000,63.180000C76.190000,63.180000,79.310000,62.460000,82.310000,61.020000C81.950000,64.380000,83.450000,66.060000,86.810000,66.060000ZM73.220000,56.520000C69.920000,56.520000,68.270000,55.560000,68.270000,53.640000C68.270000,50.100000,72.020000,48.330000,79.520000,48.330000C81.320000,48.330000,82.220000,48.930000,82.220000,50.130000C82.220000,51.990000,81.140000,53.550000,78.980000,54.810000C77.180000,55.950000,75.260000,56.520000,73.220000,56.520000Z" transform="matrix(1 0 0 1 0 -1.79000000000001)" fill="rgb(164,79,47)" fill-opacity="0" stroke="rgb(0,0,0)" stroke-width="1" stroke-linecap="round" stroke-linejoin="round" stroke-dashoffset="264.870000" stroke-dasharray="264" class="svg-elem-2"></path><path id="e9thq6oey82p9" d="M18.400000,139.100000C19.600000,139.100000,20.800000,138.665000,22,137.795000C23.200000,136.925000,23.800000,135.920000,23.800000,134.780000C23.800000,134.240000,23.335000,133.400000,22.405000,132.260000C21.475000,131.120000,21.010000,126.710000,21.010000,119.030000L21.010756,118.817168C21.035452,115.275056,21.665200,108.506000,22.900000,98.510000C24.340000,103.190000,25.750000,107.870000,27.130000,112.550000C29.530000,119.750000,31.900000,125.390000,34.240000,129.470000C37.480000,134.990000,40.750000,137.750000,44.050000,137.750000C46.270000,137.750000,48.130000,136.010000,49.630000,132.530000C50.770000,129.770000,51.370000,127.070000,51.430000,124.430000L51.430000,124.430000L51.700000,98.600000C51.700000,95.120000,52.570000,90.650000,54.310000,85.190000C54.430000,84.890000,54.820000,84.080000,55.480000,82.760000C56.020000,81.740000,56.290000,80.900000,56.290000,80.240000C56.290000,80,56.260000,79.730000,56.200000,79.430000C54.700000,78.350000,53.530000,77.810000,52.690000,77.810000C50.050000,77.810000,47.950000,80.300000,46.390000,85.280000C45.310000,88.820000,44.680000,92.420000,44.500000,96.080000L44.500000,96.080000L43.600000,120.470000C43.600000,121.070000,43.675000,121.910000,43.825000,122.990000C43.975000,124.070000,44.050000,124.850000,44.050000,125.330000C44.050000,127.010000,43.720000,127.850000,43.060000,127.850000C41.260000,127.850000,38.530000,122.300000,34.870000,111.200000C31.810000,101.780000,29.920000,94.940000,29.200000,90.680000C29.020000,89.180000,28.840000,87.710000,28.660000,86.270000C28.360000,84.170000,28.030000,82.790000,27.670000,82.130000C26.350000,80.150000,24.160000,79.160000,21.100000,79.160000C19.780000,79.160000,18.460000,79.490000,17.140000,80.150000C15.520000,80.930000,14.710000,81.920000,14.710000,83.120000C14.710000,83.240000,14.755000,83.420000,14.845000,83.660000C14.935000,83.900000,14.980000,84.080000,14.980000,84.200000L14.980000,84.200000L14.980000,95.180000C14.980000,97.640000,14.680000,101.300000,14.080000,106.160000C13.480000,111.020000,13.180000,114.680000,13.180000,117.140000C13.180000,118.160000,13.150000,119.675000,13.090000,121.685000C13.030000,123.695000,13,125.210000,13,126.230000C13,128.510000,13.420000,131.030000,14.260000,133.790000C15.340000,137.330000,16.720000,139.100000,18.400000,139.100000Z" fill="rgb(164,79,47)" fill-opacity="0" stroke="rgb(0,0,0)" stroke-width="1" stroke-linecap="round" stroke-linejoin="round" stroke-dashoffset="333.450000" stroke-dasharray="333" class="svg-elem-3"></path><path id="e9thq6oey82p10" d="M82.810000,143.060000C85.030000,143.060000,86.290000,142.130000,86.590000,140.270000C87.070000,137.090000,87.310000,131.630000,87.310000,123.890000C87.310000,108.590000,81.670000,100.940000,70.390000,100.940000C67.030000,100.940000,64.150000,102.020000,61.750000,104.180000C59.350000,106.340000,58.150000,109.100000,58.150000,112.460000C58.150000,113.480000,58.705000,114.455000,59.815000,115.385000C60.925000,116.315000,61.990000,116.780000,63.010000,116.780000C64.690000,116.780000,65.530000,116.030000,65.530000,114.530000C65.530000,110.090000,67.900000,107.870000,72.640000,107.870000C76.420000,107.870000,78.280000,111.020000,78.220000,117.320000L78.220000,117.320000L78.220000,119.480000L70.570000,119.480000C67.510000,119.480000,64.240000,120.590000,60.760000,122.810000C56.920000,125.270000,55,127.910000,55,130.730000C55,133.610000,56.680000,135.980000,60.040000,137.840000C62.860000,139.400000,65.830000,140.180000,68.950000,140.180000C72.190000,140.180000,75.310000,139.460000,78.310000,138.020000C77.950000,141.380000,79.450000,143.060000,82.810000,143.060000ZM69.220000,133.520000C65.920000,133.520000,64.270000,132.560000,64.270000,130.640000C64.270000,127.100000,68.020000,125.330000,75.520000,125.330000C77.320000,125.330000,78.220000,125.930000,78.220000,127.130000C78.220000,128.990000,77.140000,130.550000,74.980000,131.810000C73.180000,132.950000,71.260000,133.520000,69.220000,133.520000Z" fill="rgb(164,79,47)" fill-opacity="0" stroke="rgb(0,0,0)" stroke-width="1" stroke-linecap="round" stroke-linejoin="round" stroke-dashoffset="210.030000" stroke-dasharray="210" class="svg-elem-4"></path><path id="e9thq6oey82p11" d="M102.160000,139.550000C103.120000,139.550000,104.080000,139.175000,105.040000,138.425000C106,137.675000,106.480000,136.820000,106.480000,135.860000C106.480000,134.720000,106.285000,132.980000,105.895000,130.640000C105.505000,128.300000,105.310000,126.530000,105.310000,125.330000L105.310000,125.330000L105.310749,118.505172C105.317992,114.329896,105.377742,111.624839,105.490000,110.390000C110.470000,109.730000,112.960000,108.590000,112.960000,106.970000C112.960000,104.570000,110.620000,103.130000,105.940000,102.650000L105.940000,102.650000L105.940000,102.290000C105.880000,100.790000,106.075000,99.335000,106.525000,97.925000C106.975000,96.515000,107.200000,95.090000,107.200000,93.650000C107.200000,92.330000,106.630000,91.085000,105.490000,89.915000C104.350000,88.745000,103.150000,88.160000,101.890000,88.160000C101.050000,88.160000,100.165000,88.475000,99.235000,89.105000C98.305000,89.735000,97.840000,90.440000,97.840000,91.220000C97.840000,91.700000,98.020000,92.270000,98.380000,92.930000L98.380000,92.930000L98.380000,99.500000C98.440000,102.440000,97.840000,103.910000,96.580000,103.910000C96.460000,103.910000,96.280000,103.880000,96.040000,103.820000L96.040000,103.820000L95.500000,103.820000C93.580000,103.820000,91.840000,104.930000,90.280000,107.150000C90.160000,107.450000,90.100000,107.720000,90.100000,107.960000C90.100000,108.860000,90.880000,109.550000,92.440000,110.030000C92.860000,110.150000,94.450000,110.420000,97.210000,110.840000L97.210000,110.840000L97.210000,129.920000C97.210000,131.780000,97.600000,133.700000,98.380000,135.680000C99.400000,138.260000,100.660000,139.550000,102.160000,139.550000Z" fill="rgb(164,79,47)" fill-opacity="0" stroke="rgb(0,0,0)" stroke-width="1" stroke-linecap="round" stroke-linejoin="round" stroke-dashoffset="133.410000" stroke-dasharray="133" class="svg-elem-5"></path><path id="e9thq6oey82p12" d="M141.580000,140.990000C143.920000,140.990000,145.090000,140.300000,145.090000,138.920000C145.090000,137.300000,145.015000,134.825000,144.865000,131.495000C144.715000,128.165000,144.640000,125.660000,144.640000,123.980000C144.640000,122.060000,144.865000,119.225000,145.315000,115.475000C145.765000,111.725000,145.990000,108.920000,145.990000,107.060000C145.990000,105.680000,145.405000,104.540000,144.235000,103.640000C143.065000,102.740000,141.760000,102.290000,140.320000,102.290000C138.940000,102.290000,137.500000,102.980000,136,104.360000C136.720000,106.400000,137.080000,108.110000,137.080000,109.490000L137.080000,109.490000L137.080000,120.290000C137.080000,123.530000,136.660000,126.290000,135.820000,128.570000C134.560000,131.870000,132.640000,133.520000,130.060000,133.520000C128.740000,133.520000,127.600000,132.620000,126.640000,130.820000C125.860000,129.260000,125.470000,127.760000,125.470000,126.320000L125.470000,126.320000L125.470000,113.630000C125.470000,112.670000,125.605000,111.230000,125.875000,109.310000C126.145000,107.390000,126.280000,105.950000,126.280000,104.990000C126.280000,102.170000,124.840000,100.760000,121.960000,100.760000C120.760000,100.760000,119.260000,101.420000,117.460000,102.740000C117.520000,105.140000,117.460000,108.470000,117.280000,112.730000C117.160000,117.530000,117.100000,120.890000,117.100000,122.810000C117.100000,128.390000,117.970000,132.440000,119.710000,134.960000C120.610000,136.280000,122.170000,137.405000,124.390000,138.335000C126.610000,139.265000,128.590000,139.730000,130.330000,139.730000C132.490000,139.730000,134.710000,138.980000,136.990000,137.480000C137.650000,139.820000,139.180000,140.990000,141.580000,140.990000Z" fill="rgb(164,79,47)" fill-opacity="0" stroke="rgb(0,0,0)" stroke-width="1" stroke-linecap="round" stroke-linejoin="round" stroke-dashoffset="182.920000" stroke-dasharray="182" class="svg-elem-6"></path><path id="e9thq6oey82p13" d="M107.960000,64.270000C111.440000,64.270000,114.770000,63.610000,117.950000,62.290000C122.030000,60.610000,124.070000,58.270000,124.070000,55.270000C124.070000,53.830000,122.780000,53.110000,120.200000,53.110000C119.480000,53.110000,117.845000,53.860000,115.295000,55.360000C112.745000,56.860000,110.150000,57.610000,107.510000,57.610000C104.390000,57.610000,102.710000,54.760000,102.470000,49.060000C104.330000,50.080000,105.680000,50.590000,106.520000,50.590000C110.840000,50.590000,114.560000,49.540000,117.680000,47.440000C121.220000,45.100000,122.990000,41.950000,122.990000,37.990000C122.990000,34.810000,121.085000,31.750000,117.275000,28.810000C113.465000,25.870000,109.910000,24.400000,106.610000,24.400000C102.950000,24.400000,99.830000,27.640000,97.250000,34.120000C95.150000,39.400000,94.100000,44.200000,94.100000,48.520000C94.100000,59.020000,98.720000,64.270000,107.960000,64.270000ZM107.690000,43.750000C106.490000,43.750000,105.500000,43.390000,104.720000,42.670000C103.940000,41.950000,103.550000,41.020000,103.550000,39.880000C103.550000,37.840000,104,36.070000,104.900000,34.570000C105.980000,32.830000,107.510000,31.960000,109.490000,31.960000C110.930000,31.960000,112.085000,32.635000,112.955000,33.985000C113.825000,35.335000,114.260000,36.760000,114.260000,38.260000C114.260000,41.920000,112.070000,43.750000,107.690000,43.750000Z" fill="rgb(164,79,47)" fill-opacity="0" stroke="rgb(0,0,0)" stroke-width="1" stroke-linecap="round" stroke-linejoin="round" stroke-dashoffset="189.420000" stroke-dasharray="189.420000" class="svg-elem-7"></path></g></g></g></g></svg>
